<svg xmlns="http://www.w3.org/2000/svg" viewBox="0 0 169.69 29.23"><g id="Lag_2" data-name="Lag 2"><g id="Lag_1-2" data-name="Lag 1"><path d="M11.44,22.15V19.49c0-1.43,0-2.86,0-4.29a1.08,1.08,0,0,1,.21-.7c1-1.05,2.11-2.06,3.2-3.12.69.68,1.38,1.46,2.18,2.11a3.24,3.24,0,0,1,1.18,2.88c-.07,4,0,8,0,12,0,.89,0,.91-.91.9a26.37,26.37,0,0,1-6.2-.45A14.85,14.85,0,0,1,.23,17.13,14.66,14.66,0,0,1,12.29.21,14.81,14.81,0,0,1,29.42,12.14c.11.61.1,1.24.16,1.87,0,.35-.12.51-.48.51H23.76c-.49,0-.55-.29-.59-.66a8.05,8.05,0,0,0-4.64-6.67,8.37,8.37,0,0,0-12,6.19,8.23,8.23,0,0,0,4.24,8.5C10.94,22,11.12,22,11.44,22.15Z"/><path d="M118.2,21.32h-2.72c-.06,0-.14-.09-.16-.16a.75.75,0,0,1,0-.26V15a3.49,3.49,0,0,0,0-.65,1.51,1.51,0,0,0-1.61-1.27A1.59,1.59,0,0,0,112,14.41a3.55,3.55,0,0,0,0,.57c0,2,0,4,0,6v.34H109.1V14.85a1.61,1.61,0,0,0-.74-1.52,1.73,1.73,0,0,0-2.61,1.26,3.27,3.27,0,0,0,0,.54v6.18H102.8V10.86l.29,0h2.17c.24,0,.34.05.33.31,0,.43,0,.86,0,1.28v.25l.09.06a3.15,3.15,0,0,1,1.7-1.79,3.61,3.61,0,0,1,2.53,0,2.7,2.7,0,0,1,1.7,1.86,2,2,0,0,0,.14-.23,3,3,0,0,1,2.32-1.76,3.57,3.57,0,0,1,2.84.52,3.23,3.23,0,0,1,1.32,2.77c0,2.35,0,4.69,0,7A2.06,2.06,0,0,1,118.2,21.32Z"/><path d="M50,15.91l.42-.23a3.72,3.72,0,0,0,1.93-2.51,5.23,5.23,0,0,0,.09-2.12A4,4,0,0,0,50.34,8a6.42,6.42,0,0,0-3.1-.66H42.16l-.3,0v14H44.8c0-.1,0-.19,0-.27,0-1.48,0-2.95,0-4.42,0-.2,0-.27.26-.27.54,0,1.07,0,1.6,0a.5.5,0,0,1,.53.31c.79,1.49,1.6,3,2.4,4.45,0,.09.15.2.23.2,1,0,2.07,0,3.16,0Zm-.94-2.7a2,2,0,0,1-1.53.75c-.84,0-1.67,0-2.51,0-.14,0-.21,0-.21-.19,0-1.32,0-2.64,0-4a.19.19,0,0,1,0-.07l0,0a12.7,12.7,0,0,1,3,.12A2.14,2.14,0,0,1,49.06,13.21Z"/><path d="M169.6,21l-4.68-13.4a.3.3,0,0,0-.35-.25h-3.34c-.2,0-.27.07-.33.24Q158.55,14.3,156.2,21c0,.08,0,.18-.08.28H159a.29.29,0,0,0,.33-.24c.28-.9.59-1.79.87-2.68a.33.33,0,0,1,.38-.29c1.52,0,3,0,4.57,0a.34.34,0,0,1,.38.29c.29.91.59,1.8.88,2.7a.26.26,0,0,0,.29.22h2.73l.22,0Zm-8.51-5.16c.59-1.79,1.17-3.55,1.76-5.32H163q.87,2.64,1.75,5.31Z"/><path d="M152.92,16.58h3c0,.18,0,.34-.09.5a5.59,5.59,0,0,1-4.5,4.28A6.94,6.94,0,0,1,147,21a6,6,0,0,1-3.57-4.28,8.83,8.83,0,0,1,.34-5.74,6,6,0,0,1,5.07-3.75,6.69,6.69,0,0,1,4.5.89,5.38,5.38,0,0,1,2.53,4,.49.49,0,0,1,0,.11h-3l0-.16a2.76,2.76,0,0,0-2.34-2.23,3.37,3.37,0,0,0-3.26,1,4.09,4.09,0,0,0-1,2.08,7,7,0,0,0,.27,3.78,3.32,3.32,0,0,0,3.63,2.2A2.83,2.83,0,0,0,152.92,16.58Z"/><path d="M73.13,14.3a3.13,3.13,0,0,0-1.91-3.06,6.29,6.29,0,0,0-3.29-.49,5,5,0,0,0-2.09.6A3.72,3.72,0,0,0,64,13.78l.28.05,2.09.17c.21,0,.38,0,.45-.25a.83.83,0,0,1,.2-.3A2.23,2.23,0,0,1,69.51,13a1.19,1.19,0,0,1,.44.36.91.91,0,0,1-.55,1.58c-.53.11-1.07.16-1.6.22a7.85,7.85,0,0,0-2.53.59,2.53,2.53,0,0,0-1.53,1.8,5,5,0,0,0-.09,1.16,2.65,2.65,0,0,0,1.53,2.38,4.45,4.45,0,0,0,2.54.4A3.12,3.12,0,0,0,70.17,20a1.77,1.77,0,0,1,.12-.17l.06,0v1.4h2.78v-.36C73.13,18.73,73.12,16.52,73.13,14.3Zm-3,3.72a2,2,0,0,1-1.72,1.49,2.57,2.57,0,0,1-1.29-.12,1.1,1.1,0,0,1-.74-1A1.13,1.13,0,0,1,67,17.31a3.8,3.8,0,0,1,1.39-.42c.61-.1,1.21-.22,1.87-.35A10.57,10.57,0,0,1,70.17,18Z"/><path d="M63.15,15.7A6.8,6.8,0,0,0,63,14.51,4.41,4.41,0,0,0,60,11a5.75,5.75,0,0,0-2.76-.23,4.5,4.5,0,0,0-3.57,2.47,6.33,6.33,0,0,0-.2,5.38,4.28,4.28,0,0,0,2.84,2.61,6.55,6.55,0,0,0,4,0A3.91,3.91,0,0,0,63,18.75a2.12,2.12,0,0,0,.1-.4c-.74-.05-1.44-.09-2.14-.16a.71.71,0,0,0-.79.38,2,2,0,0,1-1.7.81,2.31,2.31,0,0,1-2.53-2.56h7.24C63.16,16.42,63.18,16.06,63.15,15.7Zm-3-.65h-3.9c-.32,0-.32,0-.26-.33a2.22,2.22,0,0,1,2.27-1.86,2.08,2.08,0,0,1,2.16,1.83,3.07,3.07,0,0,1,0,.34Z"/><path d="M129.3,16.82a8.7,8.7,0,0,0-.12-2.23,4.46,4.46,0,0,0-3-3.58,5.79,5.79,0,0,0-2.71-.24,4.58,4.58,0,0,0-3.68,2.59,6.35,6.35,0,0,0-.37,4.61,4.44,4.44,0,0,0,3.3,3.34,6.68,6.68,0,0,0,3.81-.09A4,4,0,0,0,129,19a6.5,6.5,0,0,0,.23-.67l-2.61-.15c-.06,0-.15.09-.19.16a1.86,1.86,0,0,1-1,.85,2.91,2.91,0,0,1-1.52.14,2.26,2.26,0,0,1-1.89-2.52ZM123.73,13a2.15,2.15,0,0,1,2.77,1.52c.15.56.13.58-.43.58h-4A2.19,2.19,0,0,1,123.73,13Z"/><path d="M93.19,9.76V21.3H90.25V9.76H85.9V8.62c0-.35,0-.7,0-1s.06-.24.24-.24H97.52V9.76Z"/><path d="M133.92,7.36h3V18.58c0,.34,0,.34.34.34h5.71V21.3h-9Z"/><path d="M74.5,7.36h2.88V21.3H74.5Z"/><path d="M98.47,10.86h2.88V21.3H98.47Z"/><path d="M85.39,14.45V16.7H79V14.45Z"/><path d="M99.92,9.46A1.52,1.52,0,0,1,98.34,8.1a1.54,1.54,0,0,1,1.73-1.55,1.56,1.56,0,0,1,1.43,1.39A1.52,1.52,0,0,1,99.92,9.46Z"/></g></g></svg>