<svg xmlns="http://www.w3.org/2000/svg" viewBox="0 0 98.28 28.91"><defs><style>.cls-1,.cls-2,.cls-3,.cls-4,.cls-5{fill:none;stroke:#fff;stroke-miterlimit:10;}.cls-1{stroke-width:0.52px;}.cls-2{stroke-width:0.61px;}.cls-3{stroke-width:0.72px;}.cls-4{stroke-width:0.85px;}</style></defs><g id="Lag_2" data-name="Lag 2"><g id="Lag_1-2" data-name="Lag 1"><polygon points="19.55 15.53 23.07 12.64 27.33 14.26 28.06 18.75 24.54 21.63 20.28 20.02 19.55 15.53"/><polygon class="cls-1" points="19.55 15.53 23.07 12.64 27.33 14.26 28.06 18.75 24.54 21.63 20.28 20.02 19.55 15.53"/><polygon points="19.27 16.87 24.53 17.86 26.3 22.92 22.81 26.98 17.55 25.98 15.78 20.93 19.27 16.87"/><polygon class="cls-2" points="19.27 16.87 24.53 17.86 26.3 22.92 22.81 26.98 17.55 25.98 15.78 20.93 19.27 16.87"/><polygon points="17.85 17.64 20.94 23.13 17.72 28.55 11.42 28.47 8.34 22.98 11.55 17.56 17.85 17.64"/><polygon class="cls-3" points="17.85 17.64 20.94 23.13 17.72 28.55 11.42 28.47 8.34 22.98 11.55 17.56 17.85 17.64"/><polygon points="16.09 16.94 13.47 23.87 6.15 25.07 1.46 19.33 4.08 12.4 11.4 11.2 16.09 16.94"/><polygon class="cls-4" points="16.09 16.94 13.47 23.87 6.15 25.07 1.46 19.33 4.08 12.4 11.4 11.2 16.09 16.94"/><polygon points="15.38 14.82 7.16 17.7 0.55 12.02 2.17 3.45 10.4 0.57 17.01 6.25 15.38 14.82"/><polygon class="cls-5" points="15.38 14.82 7.16 17.7 0.55 12.02 2.17 3.45 10.4 0.57 17.01 6.25 15.38 14.82"/><path d="M42.6,6.32H52a5.08,5.08,0,0,1,3.6,1.16,3.75,3.75,0,0,1,1.26,2.88,3.63,3.63,0,0,1-.9,2.47,4,4,0,0,1-1.75,1.09,4.56,4.56,0,0,1,2.58,1.44,4,4,0,0,1,.82,2.58A4.43,4.43,0,0,1,57,20.21a4.31,4.31,0,0,1-1.61,1.59,5.3,5.3,0,0,1-1.9.54c-1.13.14-1.88.22-2.25.22H42.6Zm5.07,6.37h2.18a2.48,2.48,0,0,0,1.63-.41,1.47,1.47,0,0,0,.46-1.17A1.39,1.39,0,0,0,51.48,10a2.5,2.5,0,0,0-1.6-.39H47.67Zm0,6.38h2.56a2.83,2.83,0,0,0,1.82-.46,1.55,1.55,0,0,0,.54-1.24,1.45,1.45,0,0,0-.53-1.16,3,3,0,0,0-1.85-.43H47.67Z"/><path d="M72.34,22.56H68.13V20.65a6.21,6.21,0,0,1-1.9,1.67,5,5,0,0,1-2.36.5A3.81,3.81,0,0,1,61,21.71a4.81,4.81,0,0,1-1.06-3.43V10.79h4.53v6.47a2.38,2.38,0,0,0,.41,1.57A1.46,1.46,0,0,0,66,19.3a1.64,1.64,0,0,0,1.32-.62,3.54,3.54,0,0,0,.52-2.23V10.79h4.51Z"/><path d="M75.24,6.32h4.51V9.38H75.24Zm0,4.47h4.51V22.56H75.24Z"/><path d="M82.79,6.32h4.52V22.56H82.79Z"/><path d="M95.63,6.32v4.47h2.48v3.3H95.63v4.17a2.41,2.41,0,0,0,.14,1,.83.83,0,0,0,.78.37,4.68,4.68,0,0,0,1.39-.29l.34,3.12a15,15,0,0,1-3.13.36,5.4,5.4,0,0,1-2.48-.43,2.61,2.61,0,0,1-1.18-1.31,7.63,7.63,0,0,1-.38-2.85V14.09H89.45v-3.3h1.66V8.63Z"/></g></g></svg>