<svg xmlns="http://www.w3.org/2000/svg" viewBox="0 0 29.58 29.23"><defs><style>.cls-1{fill:#fff;}</style></defs><g id="Lag_2" data-name="Lag 2"><g id="Lag_1-2" data-name="Lag 1"><path class="cls-1" d="M11.44,22.15V19.49c0-1.43,0-2.86,0-4.29a1.08,1.08,0,0,1,.21-.7c1-1.05,2.11-2.06,3.2-3.12.69.68,1.38,1.46,2.18,2.11a3.24,3.24,0,0,1,1.18,2.88c-.07,4,0,8,0,12,0,.89,0,.91-.91.9a26.37,26.37,0,0,1-6.2-.45A14.85,14.85,0,0,1,.23,17.13,14.66,14.66,0,0,1,12.29.21,14.81,14.81,0,0,1,29.42,12.14c.11.61.1,1.24.16,1.87,0,.35-.12.51-.48.51H23.76c-.49,0-.55-.29-.59-.66a8.05,8.05,0,0,0-4.64-6.67,8.37,8.37,0,0,0-12,6.19,8.23,8.23,0,0,0,4.24,8.5C10.94,22,11.12,22,11.44,22.15Z"/></g></g></svg>