<svg xmlns="http://www.w3.org/2000/svg" viewBox="0 0 28.34 28.91"><defs><style>.cls-1,.cls-2,.cls-3,.cls-4,.cls-5{fill:none;stroke:#fff;stroke-miterlimit:10;}.cls-1{stroke-width:0.52px;}.cls-2{stroke-width:0.61px;}.cls-3{stroke-width:0.72px;}.cls-4{stroke-width:0.85px;}</style></defs><g id="Lag_2" data-name="Lag 2"><g id="Lag_1-2" data-name="Lag 1"><polygon points="19.55 15.53 23.07 12.64 27.33 14.26 28.06 18.75 24.54 21.63 20.28 20.02 19.55 15.53"/><polygon class="cls-1" points="19.55 15.53 23.07 12.64 27.33 14.26 28.06 18.75 24.54 21.63 20.28 20.02 19.55 15.53"/><polygon points="19.27 16.87 24.53 17.86 26.3 22.92 22.81 26.98 17.55 25.98 15.78 20.93 19.27 16.87"/><polygon class="cls-2" points="19.27 16.87 24.53 17.86 26.3 22.92 22.81 26.98 17.55 25.98 15.78 20.93 19.27 16.87"/><polygon points="17.85 17.64 20.94 23.13 17.72 28.55 11.42 28.47 8.34 22.98 11.55 17.56 17.85 17.64"/><polygon class="cls-3" points="17.85 17.64 20.94 23.13 17.72 28.55 11.42 28.47 8.34 22.98 11.55 17.56 17.85 17.64"/><polygon points="16.09 16.94 13.47 23.87 6.15 25.07 1.46 19.33 4.08 12.4 11.4 11.2 16.09 16.94"/><polygon class="cls-4" points="16.09 16.94 13.47 23.87 6.15 25.07 1.46 19.33 4.08 12.4 11.4 11.2 16.09 16.94"/><polygon points="15.38 14.82 7.16 17.7 0.55 12.02 2.17 3.45 10.4 0.57 17.01 6.25 15.38 14.82"/><polygon class="cls-5" points="15.38 14.82 7.16 17.7 0.55 12.02 2.17 3.45 10.4 0.57 17.01 6.25 15.38 14.82"/></g></g></svg>