<svg xmlns="http://www.w3.org/2000/svg" viewBox="0 0 22.73 29.22"><defs><style>.cls-1{fill:#fff;}</style></defs><g id="Lag_2" data-name="Lag 2"><g id="Lag_1-2" data-name="Lag 1"><path class="cls-1" d="M6.12.38,2.35,3.24a1.11,1.11,0,0,1-.72.23L0,3.4,3.77.54A1.11,1.11,0,0,1,4.49.31Z"/><path class="cls-1" d="M8.55,2.07,4.94,4.33a1.12,1.12,0,0,1-1.08,0h0a1.12,1.12,0,0,1-.11-2L7.37.17A1.12,1.12,0,0,1,8.45.11h0A1.12,1.12,0,0,1,8.55,2.07Z"/><path class="cls-1" d="M13.79,4.73,7.7,7.57a1.12,1.12,0,0,1-1.36-.34L5.24,5.79a1.13,1.13,0,0,1,.42-1.7l6.09-2.83a1.12,1.12,0,0,1,1.36.34L14.21,3A1.12,1.12,0,0,1,13.79,4.73Z"/><rect class="cls-1" x="7.62" y="6.4" width="11.34" height="7.42" rx="1.12" transform="translate(-2.16 3.79) rotate(-15)"/><rect class="cls-1" x="8.73" y="15.22" width="14" height="14" rx="1.12"/></g></g></svg>