<svg xmlns="http://www.w3.org/2000/svg" viewBox="0 0 110.73 29.22"><g id="Lag_2" data-name="Lag 2"><g id="Lag_1-2" data-name="Lag 1"><path d="M6.12.38,2.35,3.24a1.11,1.11,0,0,1-.72.23L0,3.4,3.77.54A1.11,1.11,0,0,1,4.49.31Z"/><path d="M8.55,2.07,4.94,4.33a1.12,1.12,0,0,1-1.08,0h0a1.12,1.12,0,0,1-.11-2L7.37.17A1.12,1.12,0,0,1,8.45.11h0A1.12,1.12,0,0,1,8.55,2.07Z"/><path d="M13.79,4.73,7.7,7.57a1.12,1.12,0,0,1-1.36-.34L5.24,5.79a1.13,1.13,0,0,1,.42-1.7l6.09-2.83a1.12,1.12,0,0,1,1.36.34L14.21,3A1.12,1.12,0,0,1,13.79,4.73Z"/><rect x="7.62" y="6.4" width="11.34" height="7.42" rx="1.12" transform="translate(-2.16 3.79) rotate(-15)"/><rect x="8.73" y="15.22" width="14" height="14" rx="1.12"/><path d="M54,10.32,51,21.5H47.2l-1.76-7.25L43.62,21.5H39.85L36.8,10.32h3.43l1.58,8,1.89-8h3.62l1.9,8,1.57-8Z"/><path d="M55.57,8.63A1.71,1.71,0,0,1,55,7.32,1.72,1.72,0,0,1,55.57,6,2.05,2.05,0,0,1,57,5.45,2,2,0,0,1,58.49,6a1.72,1.72,0,0,1,.57,1.33,1.71,1.71,0,0,1-.57,1.31A2.05,2.05,0,0,1,57,9.16,2.09,2.09,0,0,1,55.57,8.63Zm3.17,1.69V21.5H55.32V10.32Z"/><path d="M64.65,6.68V21.5H61.23V6.68Z"/><path d="M67.11,12.87a4.83,4.83,0,0,1,1.77-2,4.69,4.69,0,0,1,2.5-.7,4.51,4.51,0,0,1,2,.46,3.79,3.79,0,0,1,1.43,1.25V6.68h3.43V21.5H74.83V19.9a3.53,3.53,0,0,1-1.37,1.28,4.34,4.34,0,0,1-2.08.48,4.53,4.53,0,0,1-2.5-.71,4.86,4.86,0,0,1-1.77-2,6.7,6.7,0,0,1-.66-3A6.59,6.59,0,0,1,67.11,12.87Zm7,1a2.42,2.42,0,0,0-3.47,0,2.79,2.79,0,0,0-.71,2,2.86,2.86,0,0,0,.71,2,2.39,2.39,0,0,0,3.47,0,2.84,2.84,0,0,0,.71-2A2.81,2.81,0,0,0,74.12,13.89Z"/><path d="M91.22,16.73H83.46a2.35,2.35,0,0,0,.68,1.6,2.06,2.06,0,0,0,1.45.55,1.8,1.8,0,0,0,1.78-1.08H91a5.18,5.18,0,0,1-1,2,5,5,0,0,1-1.84,1.38,5.76,5.76,0,0,1-2.46.5,6,6,0,0,1-2.93-.7,5,5,0,0,1-2-2,6.2,6.2,0,0,1-.72-3.05,6.29,6.29,0,0,1,.71-3,4.94,4.94,0,0,1,2-2,6.15,6.15,0,0,1,2.95-.7,6,6,0,0,1,2.88.68,5,5,0,0,1,2,1.95,5.92,5.92,0,0,1,.71,2.94A8.64,8.64,0,0,1,91.22,16.73Zm-3.45-1.9a1.76,1.76,0,0,0-.6-1.4,2.19,2.19,0,0,0-1.5-.52,2.16,2.16,0,0,0-1.45.5,2.23,2.23,0,0,0-.74,1.42Z"/><path d="M98,10.73a3.91,3.91,0,0,1,2-.53v3.63h-.94a2.86,2.86,0,0,0-1.92.55,2.44,2.44,0,0,0-.64,1.93V21.5H93.08V10.32h3.43v1.87A4.54,4.54,0,0,1,98,10.73Z"/><path d="M103.6,21.16a4.41,4.41,0,0,1-1.8-1.37,3.67,3.67,0,0,1-.75-1.95h3.39a1.31,1.31,0,0,0,.54.94,1.92,1.92,0,0,0,1.18.36,1.7,1.7,0,0,0,1-.25.79.79,0,0,0,.35-.65.75.75,0,0,0-.51-.71,9.37,9.37,0,0,0-1.62-.52,13.69,13.69,0,0,1-2-.59,3.28,3.28,0,0,1-1.38-1,2.64,2.64,0,0,1-.58-1.81,3,3,0,0,1,.53-1.75,3.55,3.55,0,0,1,1.56-1.26,6.08,6.08,0,0,1,2.45-.46,4.94,4.94,0,0,1,3.32,1A4.06,4.06,0,0,1,110.67,14h-3.16a1.42,1.42,0,0,0-.51-.92,1.78,1.78,0,0,0-1.14-.34,1.51,1.51,0,0,0-.92.23.73.73,0,0,0-.32.63.77.77,0,0,0,.51.72,8.17,8.17,0,0,0,1.59.48,18.1,18.1,0,0,1,2,.63,3.49,3.49,0,0,1,1.37,1,2.85,2.85,0,0,1,.61,1.86,2.91,2.91,0,0,1-.55,1.75,3.64,3.64,0,0,1-1.58,1.21,6,6,0,0,1-2.4.44A6.32,6.32,0,0,1,103.6,21.16Z"/></g></g></svg>