<svg xmlns="http://www.w3.org/2000/svg" viewBox="0 0 127.27 30.44"><defs><style>.cls-1{fill:#fff;}</style></defs><g id="Lag_2" data-name="Lag 2"><g id="Lag_1-2" data-name="Lag 1"><g id="_9IRu77.tif" data-name="9IRu77.tif"><path class="cls-1" d="M0,12a3,3,0,0,0,.14-.89A17.18,17.18,0,0,1,4.32,1.85c.2-.23.42-.45.62-.68s.14-.1.23,0L6.94,2.94c.14.13,0,.19,0,.27A13.34,13.34,0,0,0,3.84,8,14.06,14.06,0,0,0,6.35,22.7a13.41,13.41,0,0,0,8.74,4.77,14.2,14.2,0,0,0,12.07-3.92c.15-.15.23-.13.36,0,.54.56,1.1,1.11,1.65,1.66.12.12.14.18,0,.31a17.14,17.14,0,0,1-9.61,4.74c-.35.05-.7.08-1,.12-.05,0-.12,0-.16.05h-.47a.75.75,0,0,0-.42,0h-.69a.94.94,0,0,0-.47,0h-.48c-.45-.07-.9-.06-1.35-.13a17.58,17.58,0,0,1-4.55-1.37,16.8,16.8,0,0,1-4.26-2.8A17.34,17.34,0,0,1,.11,15.82c-.06-.4,0-.81-.11-1.2v-.53a.94.94,0,0,0,0-.47v-.9a.59.59,0,0,0,0-.37Z"/><path class="cls-1" d="M0,13.62a.46.46,0,0,1,0,.47Z"/><path class="cls-1" d="M16.3,30.44a.47.47,0,0,1,.47,0Z"/><path class="cls-1" d="M17.46,30.44a.4.4,0,0,1,.42,0Z"/><path class="cls-1" d="M0,12.35a.3.3,0,0,1,0,.37Z"/><path class="cls-1" d="M4,13.14A13,13,0,0,1,14.37.31,12.89,12.89,0,0,1,26.3,3.73c.12.11.13.18,0,.31-.58.56-1.14,1.12-1.7,1.7-.12.13-.18.1-.3,0A10.32,10.32,0,0,0,7.13,10.64a10.18,10.18,0,0,0,2.59,9.71c.12.13.11.19,0,.31-.57.57-1.14,1.14-1.7,1.72-.11.11-.17.1-.27,0a13.1,13.1,0,0,1-3.58-7.19A10.78,10.78,0,0,1,4,13.14Z"/><path class="cls-1" d="M17.11,22.38a9.06,9.06,0,0,1-9-7.82,9,9,0,0,1,2.42-7.62c.14-.15.21-.13.34,0,.54.57,1.09,1.12,1.65,1.67.14.13.13.2,0,.33a6,6,0,0,0-1.7,4.25A6.05,6.05,0,0,0,14,18.72,6.23,6.23,0,0,0,21.34,18c.27-.24.27-.24.53,0,.52.52,1,1,1.55,1.54.14.13.17.2,0,.35a9.07,9.07,0,0,1-5.3,2.46C17.79,22.36,17.45,22.37,17.11,22.38Z"/><path class="cls-1" d="M13.53,16.78a5,5,0,0,1-1.46-4.14,4.94,4.94,0,0,1,2.57-3.93,5.11,5.11,0,0,1,5.94.7c.12.11.15.18,0,.3-.58.56-1.14,1.13-1.7,1.7-.12.13-.18.11-.31,0a2.26,2.26,0,0,0-3.68,1.25,2.16,2.16,0,0,0,.47,1.95c.12.14.11.21,0,.33Z"/></g><path class="cls-1" d="M42.63,13a5.38,5.38,0,0,1,2.17-2.19,6.55,6.55,0,0,1,3.2-.76,6.13,6.13,0,0,1,3.86,1.2,5.66,5.66,0,0,1,2,3.38h-4a1.92,1.92,0,0,0-2-1.39,2,2,0,0,0-1.65.79,3.71,3.71,0,0,0-.62,2.29,3.66,3.66,0,0,0,.62,2.28,2,2,0,0,0,1.65.8,1.93,1.93,0,0,0,2-1.4h4a5.73,5.73,0,0,1-2,3.36A6,6,0,0,1,48,22.6a6.55,6.55,0,0,1-3.2-.76,5.38,5.38,0,0,1-2.17-2.19,6.75,6.75,0,0,1-.78-3.31A6.76,6.76,0,0,1,42.63,13Z"/><path class="cls-1" d="M55.86,13a5.25,5.25,0,0,1,1.94-2.19,5.11,5.11,0,0,1,2.75-.76,4.72,4.72,0,0,1,2.27.52A3.82,3.82,0,0,1,64.33,12V10.24h3.76V22.43H64.33V20.7a4.1,4.1,0,0,1-1.53,1.38,4.72,4.72,0,0,1-2.27.52,5.07,5.07,0,0,1-2.73-.77,5.31,5.31,0,0,1-1.94-2.21,7.24,7.24,0,0,1-.72-3.31A7.15,7.15,0,0,1,55.86,13Zm7.69,1.11a2.53,2.53,0,0,0-1.9-.81,2.56,2.56,0,0,0-1.9.8A3,3,0,0,0,59,16.31a3.08,3.08,0,0,0,.78,2.22,2.51,2.51,0,0,0,1.9.82,2.53,2.53,0,0,0,1.9-.81,3,3,0,0,0,.78-2.2A3,3,0,0,0,63.55,14.13Z"/><path class="cls-1" d="M76.09,10.59a4.66,4.66,0,0,1,2.26-.52,5.11,5.11,0,0,1,2.75.76A5.25,5.25,0,0,1,83,13a7.15,7.15,0,0,1,.72,3.29A7.24,7.24,0,0,1,83,19.62a5.31,5.31,0,0,1-1.94,2.21,5.11,5.11,0,0,1-2.75.77,4.67,4.67,0,0,1-2.25-.52,4.2,4.2,0,0,1-1.53-1.35v7.51H70.81v-18h3.76V12A4.07,4.07,0,0,1,76.09,10.59Zm3.06,3.53a2.59,2.59,0,0,0-1.92-.8,2.53,2.53,0,0,0-1.9.81,3,3,0,0,0-.78,2.21,3,3,0,0,0,.78,2.2,2.63,2.63,0,0,0,3.81,0,3,3,0,0,0,.79-2.22A3,3,0,0,0,79.15,14.12Z"/><path class="cls-1" d="M85.7,13a5.27,5.27,0,0,1,2-2.19,5.07,5.07,0,0,1,2.74-.76,4.76,4.76,0,0,1,2.28.52A3.86,3.86,0,0,1,94.17,12V10.24h3.76V22.43H94.17V20.7a4,4,0,0,1-1.53,1.38,4.72,4.72,0,0,1-2.27.52,5,5,0,0,1-2.72-.77,5.33,5.33,0,0,1-2-2.21A7.24,7.24,0,0,1,85,16.31,7.15,7.15,0,0,1,85.7,13Zm7.69,1.11a2.53,2.53,0,0,0-1.9-.81,2.56,2.56,0,0,0-1.9.8,3,3,0,0,0-.78,2.19,3.08,3.08,0,0,0,.78,2.22,2.51,2.51,0,0,0,1.9.82,2.53,2.53,0,0,0,1.9-.81,3,3,0,0,0,.78-2.2A3,3,0,0,0,93.39,14.13Z"/><path class="cls-1" d="M100.69,13a5.38,5.38,0,0,1,2.17-2.19,6.55,6.55,0,0,1,3.2-.76,6.13,6.13,0,0,1,3.86,1.2,5.66,5.66,0,0,1,2,3.38h-4a1.92,1.92,0,0,0-2-1.39,2,2,0,0,0-1.65.79,3.71,3.71,0,0,0-.62,2.29,3.66,3.66,0,0,0,.62,2.28,2,2,0,0,0,1.65.8,1.93,1.93,0,0,0,2-1.4h4a5.73,5.73,0,0,1-2,3.36,6,6,0,0,1-3.85,1.22,6.55,6.55,0,0,1-3.2-.76,5.38,5.38,0,0,1-2.17-2.19,6.75,6.75,0,0,1-.78-3.31A6.76,6.76,0,0,1,100.69,13Z"/><path class="cls-1" d="M114.23,8.4A1.87,1.87,0,0,1,113.6,7a1.88,1.88,0,0,1,.63-1.45,2.24,2.24,0,0,1,1.61-.58,2.21,2.21,0,0,1,1.59.58A1.88,1.88,0,0,1,118.06,7a1.87,1.87,0,0,1-.63,1.43,2.21,2.21,0,0,1-1.59.58A2.24,2.24,0,0,1,114.23,8.4Zm3.48,1.84V22.43H114V10.24Z"/><path class="cls-1" d="M127.27,19.26v3.17h-1.91a4.66,4.66,0,0,1-3.19-1A4.09,4.09,0,0,1,121,18.19V13.35h-1.5V10.24H121v-3h3.76v3h2.46v3.11h-2.46v4.89a1,1,0,0,0,.26.78,1.29,1.29,0,0,0,.88.24Z"/></g></g></svg>