<svg xmlns="http://www.w3.org/2000/svg" viewBox="0 0 29.27 30.44"><defs><style>.cls-1{fill:#fff;}</style></defs><g id="Lag_2" data-name="Lag 2"><g id="Lag_1-2" data-name="Lag 1"><g id="_9IRu77.tif" data-name="9IRu77.tif"><path class="cls-1" d="M0,12a3,3,0,0,0,.14-.89A17.18,17.18,0,0,1,4.32,1.85c.2-.23.42-.45.62-.68s.14-.1.23,0L6.94,2.94c.14.13,0,.19,0,.27A13.34,13.34,0,0,0,3.84,8,14.06,14.06,0,0,0,6.35,22.7a13.41,13.41,0,0,0,8.74,4.77,14.2,14.2,0,0,0,12.07-3.92c.15-.15.23-.13.36,0,.54.56,1.1,1.11,1.65,1.66.12.12.14.18,0,.31a17.14,17.14,0,0,1-9.61,4.74c-.35.05-.7.08-1,.12-.05,0-.12,0-.16.05h-.47a.75.75,0,0,0-.42,0h-.69a.94.94,0,0,0-.47,0h-.48c-.45-.07-.9-.06-1.35-.13a17.58,17.58,0,0,1-4.55-1.37,16.8,16.8,0,0,1-4.26-2.8A17.34,17.34,0,0,1,.11,15.82c-.06-.4,0-.81-.11-1.2v-.53a.94.94,0,0,0,0-.47v-.9a.59.59,0,0,0,0-.37Z"/><path class="cls-1" d="M0,13.62a.46.46,0,0,1,0,.47Z"/><path class="cls-1" d="M16.3,30.44a.47.47,0,0,1,.47,0Z"/><path class="cls-1" d="M17.46,30.44a.4.4,0,0,1,.42,0Z"/><path class="cls-1" d="M0,12.35a.3.3,0,0,1,0,.37Z"/><path class="cls-1" d="M4,13.14A13,13,0,0,1,14.37.31,12.89,12.89,0,0,1,26.3,3.73c.12.11.13.18,0,.31-.58.56-1.14,1.12-1.7,1.7-.12.13-.18.1-.3,0A10.32,10.32,0,0,0,7.13,10.64a10.18,10.18,0,0,0,2.59,9.71c.12.13.11.19,0,.31-.57.57-1.14,1.14-1.7,1.72-.11.11-.17.1-.27,0a13.1,13.1,0,0,1-3.58-7.19A10.78,10.78,0,0,1,4,13.14Z"/><path class="cls-1" d="M17.11,22.38a9.06,9.06,0,0,1-9-7.82,9,9,0,0,1,2.42-7.62c.14-.15.21-.13.34,0,.54.57,1.09,1.12,1.65,1.67.14.13.13.2,0,.33a6,6,0,0,0-1.7,4.25A6.05,6.05,0,0,0,14,18.72,6.23,6.23,0,0,0,21.34,18c.27-.24.27-.24.53,0,.52.52,1,1,1.55,1.54.14.13.17.2,0,.35a9.07,9.07,0,0,1-5.3,2.46C17.79,22.36,17.45,22.37,17.11,22.38Z"/><path class="cls-1" d="M13.53,16.78a5,5,0,0,1-1.46-4.14,4.94,4.94,0,0,1,2.57-3.93,5.11,5.11,0,0,1,5.94.7c.12.11.15.18,0,.3-.58.56-1.14,1.13-1.7,1.7-.12.13-.18.11-.31,0a2.26,2.26,0,0,0-3.68,1.25,2.16,2.16,0,0,0,.47,1.95c.12.14.11.21,0,.33Z"/></g></g></g></svg>