<svg xmlns="http://www.w3.org/2000/svg" viewBox="0 0 27.52 27.51"><g id="Lag_2" data-name="Lag 2"><g id="Lag_1-2" data-name="Lag 1"><path d="M11.45,6.81l-.12.08L11.15,7l0,0,0,0,.19-.12Z"/><path d="M12,6.34l0,0h0l-.29.27-.1.1-.08,0,0,0h0l-.12.08L11.15,7l0,0L11,7.14,11,7.08c.07-.08.14-.17.22-.25l.1-.08,0,.06L11.15,7l.19-.12a1.3,1.3,0,0,0,.1-.15l.19-.1.08-.13.07,0,.1,0L12,6.35Z"/><path d="M11.68,6.36a1.27,1.27,0,0,0-.13.19l0,0-.2.15.12-.15Z"/><path d="M12.46,5.93a1.71,1.71,0,0,1-.2.18h0L12,6.34l0,0h0l-.29.27-.1.1-.08,0,0,0h0l-.12.08L11.15,7h0l.19-.12a1.3,1.3,0,0,0,.1-.15l.19-.1.08-.13,0,0,.1-.17.19-.1.05-.08h0L12.24,6,12.38,6h0Z"/><path d="M12,6l-.08.12-.07.11-.18.13h0a1.2,1.2,0,0,1,.17-.21A1.29,1.29,0,0,1,12,6Z"/><path d="M12.21,5.85h0l0,0Z"/><path d="M12.88,5.54l-.06,0a.12.12,0,0,1-.05,0,1.51,1.51,0,0,1-.23.21l0,0,0,0a1.71,1.71,0,0,1-.2.18h0L12,6.34l0,0h0l-.29.27-.1.1-.08,0,0,0h0l-.12.08v0a1.3,1.3,0,0,0,.1-.15l.19-.1.08-.13,0,0,.1-.17.19-.1.05-.08,0-.08.19-.09.19-.11.09-.15.12-.06.05,0,.11,0Z"/><path d="M12.35,5.62l0,.06-.1.17h0l0,0L12,6a.18.18,0,0,1,.05-.07,1.68,1.68,0,0,1,.18-.21h0Z"/><path d="M13.31,5.16h0l-.2.18L13,5.4a1.07,1.07,0,0,1-.16.14l-.06,0a.12.12,0,0,1-.05,0,1.51,1.51,0,0,1-.23.21l0,0,0,0a1.71,1.71,0,0,1-.2.18h0L12,6.34l0,0h0l-.29.27-.1.1-.08,0v0l.12-.15.08-.13,0,0,.1-.17.19-.1.05-.08,0-.08.19-.09.19-.11.09-.15.12-.06.07,0,.09-.14.19-.11.17-.12,0,0h0Z"/><path d="M12.68,5.25h0l-.11.18v0a1,1,0,0,0-.2.14l.09-.13a1.45,1.45,0,0,1,.21-.22Z"/><path d="M13.71,4.79l-.05,0-.09.09-.19.17-.07.07h0l-.2.18L13,5.4a1.07,1.07,0,0,1-.16.14l-.06,0a.12.12,0,0,1-.05,0,1.51,1.51,0,0,1-.23.21l0,0,0,0a1.71,1.71,0,0,1-.2.18h0L12,6.34l0,0h0l-.29.27s0,0,0,0l.09-.11a.86.86,0,0,0,.07-.1l0-.05s.07-.1.1-.16l.05-.08,0-.08.19-.09.19-.11.09-.15.12-.06.07,0,.09-.14.19-.11.17-.12,0,0,.09-.11.09-.15,0,0,.13,0h0l.09,0Z"/><path d="M13,4.89a.64.64,0,0,0-.08.14l-.05.09-.19.13a1.27,1.27,0,0,1,.13-.19A1.54,1.54,0,0,1,13,4.89Z"/><path d="M13.19,4.76v0l-.09,0Z"/><path d="M14.12,4.42l0,0-.16.14-.11.1-.12.11-.05,0-.09.09-.19.17-.07.07h0l-.2.18L13,5.4a1.07,1.07,0,0,1-.16.14l-.06,0a.12.12,0,0,1-.05,0,1.51,1.51,0,0,1-.23.21l0,0,0,0a1.71,1.71,0,0,1-.2.18h0L12,6.34l0,0h0l0,0,.09-.12a1.34,1.34,0,0,0,.11-.14.21.21,0,0,0,0-.06l.06-.09.19-.11.09-.15.12-.06.07,0,.09-.14.19-.11.17-.12,0,0,.09-.11.09-.15,0,0a.41.41,0,0,1,0-.09l.19-.11.09-.14h0l.05,0,.11,0,.12,0h0Z"/><path d="M11.11,7,11,7.14,11,7.08Z"/><path d="M11.68,6.65l-.1.1-.08,0,0,0h0l.06,0Z"/><path d="M13.31,4.53s0,0,0,.08l-.08.15v0l-.09,0h0L13,4.89l0,0a1,1,0,0,1,.16-.2Z"/><path d="M13.72,4.31h0l-.08,0Z"/><polygon points="13.94 4.22 13.93 4.23 13.93 4.23 13.94 4.22"/><path d="M14.51,4.06l0,0-.13.12-.15.13-.09.09,0,0-.16.14-.11.1-.12.11-.05,0-.09.09-.19.17-.07.07h0l-.2.18L13,5.4a1.07,1.07,0,0,1-.16.14l-.06,0a.12.12,0,0,1-.05,0,1.51,1.51,0,0,1-.23.21l0,0,0,0a1.71,1.71,0,0,1-.2.18L12.38,6h0a1.71,1.71,0,0,1,.11-.14l.09-.15.12-.06.07,0,.09-.14.19-.11.17-.12,0,0,.09-.11.09-.15,0,0a.41.41,0,0,1,0-.09l.19-.11.09-.14h0l.05,0L14,4.42l.09-.14.19-.11a.21.21,0,0,1,0-.06l.1,0h0l.07,0Z"/><path d="M16.41,1.18l-.14.06a.67.67,0,0,0-.2.12.8.8,0,0,0-.1.23,2,2,0,0,0-.08.26l-.1,0-.13.06a.82.82,0,0,0-.2.12,1.22,1.22,0,0,0-.1.23.67.67,0,0,0-.2.12,1.6,1.6,0,0,0-.1.23.56.56,0,0,0-.2.12,1,1,0,0,0-.11.23l-.09.26-.11,0-.11,0-.09.26-.1,0-.12,0a.91.91,0,0,0-.19.13,1,1,0,0,0-.31.35h0l0,0-.09.18.12,0,.08,0h0l-.08,0h0l-.12.06a1.37,1.37,0,0,0-.2.13s0,0,0,.08l-.08.15v0l-.09,0h0L13,4.89a.64.64,0,0,0-.08.14l-.05.09-.19.13h0l-.11.18v0a1,1,0,0,0-.2.14l0,.06-.1.17h0l0,0L12,6l-.08.12-.07.11-.18.13h0a1.27,1.27,0,0,0-.13.19l0,0-.2.15,0,.06L11.15,7l.19-.12a1.3,1.3,0,0,0,.1-.15l.19-.1.08-.13,0,0,.1-.17.19-.1.05-.08,0-.08.19-.09.19-.11.09-.15.12-.06.07,0,.09-.14.19-.11.17-.12,0,0,.09-.11.09-.15,0,0a.41.41,0,0,1,0-.09l.19-.11.09-.14h0l.05,0L14,4.42l.09-.14.19-.11a.21.21,0,0,1,0-.06l0-.08.2-.11a.64.64,0,0,0,.08-.14l.06,0,.13-.07L15,3.56l.16-.11.07-.08A2.1,2.1,0,0,0,15.45,3l.13,0a2.2,2.2,0,0,0,.21-.32l.15-.31.17,0A2.22,2.22,0,0,0,16.25,2c0-.1.07-.21.1-.31s0-.2.08-.3l.06-.28ZM13.93,4.23Z"/><path d="M12,6.38l-.29.27-.1.1-.08,0,0,0h0l-.12.08L11.15,7l0,0L11,7.14,11,7.08c.07-.08.14-.17.22-.25l.06,0L11.15,7l.19-.12a1.3,1.3,0,0,0,.1-.15l.19-.1.18-.12Z"/><path d="M13.52,4.38l.12,0h0l-.12.06a1.37,1.37,0,0,0-.2.13l.07-.11a1.94,1.94,0,0,1,.2-.21l.05,0,0,0Z"/><path d="M13.72,4.31h0l-.08,0Z"/><polygon points="13.94 4.22 13.93 4.23 13.93 4.23 13.94 4.22"/><path d="M14.9,3.71h0l-.12.1L14.63,4l-.12.1,0,0-.13.12-.15.13-.09.09,0,0-.16.14-.11.1-.12.11-.05,0-.09.09-.19.17-.07.07h0l-.2.18L13,5.4a1.07,1.07,0,0,1-.16.14l-.06,0a.12.12,0,0,1-.05,0,1.51,1.51,0,0,1-.23.21.81.81,0,0,0,.12-.14.94.94,0,0,0,.09-.12l0,0,.09-.14.19-.11.17-.12,0,0,.09-.11.09-.15,0,0a.41.41,0,0,1,0-.09l.19-.11.09-.14h0l.05,0L14,4.42l.09-.14.19-.11a.21.21,0,0,1,0-.06l0-.08.2-.11a.64.64,0,0,0,.08-.14l.06,0,.1,0h.12Z"/><path d="M11.55,6.55l0,0-.2.15.12-.15Z"/><path d="M12.26,6.11h0L12,6.34l0,0h0l-.29.27-.1.1-.08,0,0,0h0l-.12.08L11.15,7l0,0L11,7.14,11,7.08c.07-.08.14-.17.22-.25l.1-.08,0,.06L11.15,7l.19-.12a1.3,1.3,0,0,0,.1-.15l.19-.1.08-.13,0,0,.19-.11.17-.12Z"/><path d="M13.52,4.38l.12,0h0l-.12.06Z"/><path d="M13.72,4.31h0l-.08,0Z"/><polygon points="13.94 4.22 13.93 4.23 13.93 4.23 13.94 4.22"/><path d="M15.28,3.36l-.13.12L15,3.57a1.85,1.85,0,0,1-.14.14h0l-.12.1L14.63,4l-.12.1,0,0-.13.12-.15.13-.09.09,0,0-.16.14-.11.1-.12.11-.05,0-.09.09-.19.17-.07.07h0l-.2.18L13,5.4a1.07,1.07,0,0,1-.16.14l-.06,0a.08.08,0,0,0,0,0l.08-.09a1.34,1.34,0,0,0,.11-.14l.17-.12,0,0,.09-.11.09-.15,0,0a.41.41,0,0,1,0-.09l.19-.11.09-.14h0l.05,0L14,4.42l.09-.14.19-.11a.21.21,0,0,1,0-.06l0-.08.2-.11a.64.64,0,0,0,.08-.14l.06,0,.13-.07L15,3.56l.16-.11.07-.08Z"/><path d="M11.68,6.36a1.27,1.27,0,0,0-.13.19l0,0-.2.15.12-.15Z"/><path d="M11.69,6.35h0Z"/><path d="M12.54,5.85l0,0,0,0a1.71,1.71,0,0,1-.2.18h0L12,6.34l0,0h0l-.29.27-.1.1-.08,0,0,0h0l-.12.08L11.15,7l0,0L11,7.14,11,7.08c.07-.08.14-.17.22-.25l.1-.08,0,.06L11.15,7l.19-.12a1.3,1.3,0,0,0,.1-.15l.19-.1.08-.13,0,0,.1-.17.19-.1.18-.1L12.38,6h0Z"/><polygon points="13.94 4.22 13.93 4.23 13.93 4.23 13.94 4.22"/><path d="M14.44,3.34l-.09.26-.1,0-.12,0a.91.91,0,0,0-.19.13,1,1,0,0,1,.31-.36Z"/><path d="M15.65,3l-.23.23-.1.09,0,0-.13.12L15,3.57a1.85,1.85,0,0,1-.14.14h0l-.12.1L14.63,4l-.12.1,0,0-.13.12-.15.13-.09.09,0,0-.16.14-.11.1-.12.11-.05,0-.09.09-.19.17-.07.07h0l-.2.18a.75.75,0,0,0,.12-.14l0,0,.09-.11.09-.15,0,0a.41.41,0,0,1,0-.09l.19-.11.09-.14h0l.05,0L14,4.42l.09-.14.19-.11a.21.21,0,0,1,0-.06l0-.08.2-.11a.64.64,0,0,0,.08-.14l.06,0,.13-.07L15,3.56l.16-.11.07-.08A2.1,2.1,0,0,0,15.45,3l.13,0Z"/><path d="M11.68,6.36a1.27,1.27,0,0,0-.13.19l0,0-.2.15.12-.15Z"/><path d="M11.94,6.11l-.07.11-.18.13h0a1.2,1.2,0,0,1,.17-.21Z"/><path d="M12.82,5.59a.12.12,0,0,1-.05,0,1.51,1.51,0,0,1-.23.21l0,0,0,0a1.71,1.71,0,0,1-.2.18h0L12,6.34l0,0h0l-.29.27-.1.1-.08,0,0,0h0l-.12.08L11.15,7l0,0L11,7.14,11,7.08c.07-.08.14-.17.22-.25l.1-.08,0,.06L11.15,7l.19-.12a1.3,1.3,0,0,0,.1-.15l.19-.1.08-.13,0,0,.1-.17.19-.1.05-.08,0-.08.19-.09.19-.11.17-.12A.61.61,0,0,0,12.82,5.59Z"/><polygon points="13.94 4.22 13.93 4.23 13.93 4.23 13.94 4.22"/><path d="M14.75,3l-.09.26-.11,0-.11,0-.09.26-.1,0-.12,0a1.67,1.67,0,0,1,.12-.23,1.1,1.1,0,0,1,.3-.35h0A1,1,0,0,1,14.75,3Z"/><path d="M15.92,2.68a3.92,3.92,0,0,1-.27.33l-.23.23-.1.09,0,0-.13.12L15,3.57a1.85,1.85,0,0,1-.14.14h0l-.12.1L14.63,4l-.12.1,0,0-.13.12-.15.13-.09.09,0,0-.16.14-.11.1-.12.11-.05,0-.09.09-.19.17L13.5,5a.64.64,0,0,0,.1-.13h0l.09-.14.09-.14h0l.05,0L14,4.42l.09-.14.19-.11a.21.21,0,0,1,0-.06l0-.08.2-.11a.64.64,0,0,0,.08-.14l.06,0,.13-.07L15,3.56l.16-.11.07-.08A2.1,2.1,0,0,0,15.45,3l.13,0a2.2,2.2,0,0,0,.21-.32Z"/><path d="M11.68,6.36a1.27,1.27,0,0,0-.13.19l0,0-.2.15.12-.15Z"/><path d="M12,6l-.08.12-.07.11-.18.13h0a1.2,1.2,0,0,1,.17-.21A1.29,1.29,0,0,1,12,6Z"/><path d="M12.16,5.88,12,6a.18.18,0,0,1,.05-.07Z"/><path d="M13.1,5.34,13,5.4a1.07,1.07,0,0,1-.16.14l-.06,0a.12.12,0,0,1-.05,0,1.51,1.51,0,0,1-.23.21l0,0,0,0a1.71,1.71,0,0,1-.2.18h0L12,6.34l0,0h0l-.29.27-.1.1-.08,0,0,0h0l-.12.08L11.15,7l0,0L11,7.14,11,7.08c.07-.08.14-.17.22-.25l.1-.08,0,.06L11.15,7l.19-.12a1.3,1.3,0,0,0,.1-.15l.19-.1.08-.13,0,0,.1-.17.19-.1.05-.08,0-.08.19-.09.19-.11.09-.15.12-.06.07,0,.17-.11Z"/><path d="M14.86,2.76a1,1,0,0,0-.11.23l-.09.26-.11,0-.11,0a1.63,1.63,0,0,1,.11-.23h0A1.14,1.14,0,0,1,14.86,2.76Z"/><path d="M16.11,2.36a1.5,1.5,0,0,1-.19.32,3.92,3.92,0,0,1-.27.33l-.23.23-.1.09,0,0-.13.12L15,3.57a1.85,1.85,0,0,1-.14.14h0l-.12.1L14.63,4l-.12.1,0,0-.13.12-.15.13-.09.09,0,0-.16.14-.11.1-.12.11-.05,0,0,0,.09-.09.11-.14L14,4.47l0,0,.09-.14.19-.11a.21.21,0,0,1,0-.06l0-.08.2-.11a.64.64,0,0,0,.08-.14l.06,0,.13-.07L15,3.56l.16-.11.07-.08A2.1,2.1,0,0,0,15.45,3l.13,0a2.2,2.2,0,0,0,.21-.32l.15-.31Z"/><path d="M11.68,6.36a1.27,1.27,0,0,0-.13.19l0,0-.2.15.12-.15Z"/><path d="M12,6l-.08.12-.07.11-.18.13h0a1.2,1.2,0,0,1,.17-.21A1.29,1.29,0,0,1,12,6Z"/><path d="M12.31,5.68l-.1.17h0l0,0L12,6a.18.18,0,0,1,.05-.07,1.68,1.68,0,0,1,.18-.21h0Z"/><path d="M13.38,5.09l-.07.07h0l-.2.18L13,5.4a1.07,1.07,0,0,1-.16.14l-.06,0a.12.12,0,0,1-.05,0,1.51,1.51,0,0,1-.23.21l0,0,0,0a1.71,1.71,0,0,1-.2.18h0L12,6.34l0,0h0l-.29.27-.1.1-.08,0,0,0h0l-.12.08L11.15,7l0,0L11,7.14,11,7.08c.07-.08.14-.17.22-.25l.1-.08,0,.06L11.15,7l.19-.12a1.3,1.3,0,0,0,.1-.15l.19-.1.08-.13,0,0,.1-.17.19-.1.05-.08,0-.08.19-.09.19-.11.09-.15.12-.06.07,0,.09-.14.19-.11.17-.12,0,0Z"/><path d="M15.16,2.41a1.6,1.6,0,0,0-.1.23.56.56,0,0,0-.2.12A1,1,0,0,1,15.16,2.41Z"/><path d="M16.11,2.36a1.5,1.5,0,0,1-.19.32,3.92,3.92,0,0,1-.27.33l-.23.23-.1.09,0,0-.13.12L15,3.57a1.85,1.85,0,0,1-.14.14h0l-.12.1L14.63,4l-.12.1,0,0-.13.12-.15.13-.09.09,0,0-.16.14.12-.13v0l.09-.12a.71.71,0,0,0,.1-.14.21.21,0,0,1,0-.06l0-.08.2-.11a.64.64,0,0,0,.08-.14l.06,0,.13-.07L15,3.56l.16-.11.07-.08A2.1,2.1,0,0,0,15.45,3l.13,0a2.2,2.2,0,0,0,.21-.32l.15-.31Z"/><path d="M11.68,6.36a1.27,1.27,0,0,0-.13.19l0,0-.2.15.12-.15Z"/><path d="M12,6l-.08.12-.07.11-.18.13h0a1.2,1.2,0,0,1,.17-.21A1.29,1.29,0,0,1,12,6Z"/><path d="M12.35,5.62l0,.06-.1.17h0l0,0L12,6a.18.18,0,0,1,.05-.07,1.68,1.68,0,0,1,.18-.21h0Z"/><path d="M12.56,5.44v0a1,1,0,0,0-.2.14l.09-.13Z"/><path d="M13.66,4.83l-.09.09-.19.17-.07.07h0l-.2.18L13,5.4a1.07,1.07,0,0,1-.16.14l-.06,0a.12.12,0,0,1-.05,0,1.51,1.51,0,0,1-.23.21l0,0,0,0a1.71,1.71,0,0,1-.2.18h0L12,6.34l0,0h0l-.29.27-.1.1-.08,0,0,0h0l-.12.08L11.15,7l0,0L11,7.14,11,7.08c.07-.08.14-.17.22-.25l.1-.08,0,.06L11.15,7l.19-.12a1.3,1.3,0,0,0,.1-.15l.19-.1.08-.13,0,0,.1-.17.19-.1.05-.08,0-.08.19-.09.19-.11.09-.15.12-.06.07,0,.09-.14.19-.11.17-.12,0,0,.09-.11L13.5,5Z"/><path d="M15.46,2.06a1.22,1.22,0,0,0-.1.23.67.67,0,0,0-.2.12A1,1,0,0,1,15.46,2.06Z"/><path d="M16.11,2.36a1.5,1.5,0,0,1-.19.32,3.92,3.92,0,0,1-.27.33l-.23.23-.1.09,0,0-.13.12L15,3.57a1.85,1.85,0,0,1-.14.14h0l-.12.1L14.63,4l-.12.1,0,0-.13.12-.15.13.12-.13.1-.12v0a.71.71,0,0,0,.1-.14.64.64,0,0,0,.08-.14l.06,0,.13-.07L15,3.56l.16-.11.07-.08A2.1,2.1,0,0,0,15.45,3l.13,0a2.2,2.2,0,0,0,.21-.32l.15-.31Z"/><path d="M11.68,6.36a1.27,1.27,0,0,0-.13.19l0,0-.2.15.12-.15Z"/><path d="M12,6l-.08.12-.07.11-.18.13h0a1.2,1.2,0,0,1,.17-.21A1.29,1.29,0,0,1,12,6Z"/><path d="M12.35,5.62l0,.06-.1.17h0l0,0L12,6a.18.18,0,0,1,.05-.07,1.68,1.68,0,0,1,.18-.21h0Z"/><path d="M12.67,5.26l-.11.18v0a1,1,0,0,0-.2.14l.09-.13a1.45,1.45,0,0,1,.21-.22Z"/><path d="M13.94,4.58l-.11.1-.12.11-.05,0-.09.09-.19.17-.07.07h0l-.2.18L13,5.4a1.07,1.07,0,0,1-.16.14l-.06,0a.12.12,0,0,1-.05,0,1.51,1.51,0,0,1-.23.21l0,0,0,0a1.71,1.71,0,0,1-.2.18h0L12,6.34l0,0h0l-.29.27-.1.1-.08,0,0,0h0l-.12.08L11.15,7l0,0L11,7.14,11,7.08c.07-.08.14-.17.22-.25l.1-.08,0,.06L11.15,7l.19-.12a1.3,1.3,0,0,0,.1-.15l.19-.1.08-.13,0,0,.1-.17.19-.1.05-.08,0-.08.19-.09.19-.11.09-.15.12-.06.07,0,.09-.14.19-.11.17-.12,0,0,.09-.11.09-.15.17-.09,0,0,.17-.11Z"/><path d="M16,1.59a2,2,0,0,0-.08.26l-.1,0-.13.06a.82.82,0,0,0-.2.12,1.12,1.12,0,0,1,.3-.35A.72.72,0,0,1,16,1.59Z"/><path d="M16.11,2.36a1.5,1.5,0,0,1-.19.32,3.92,3.92,0,0,1-.27.33l-.23.23-.1.09,0,0-.13.12L15,3.57a1.85,1.85,0,0,1-.14.14h0l-.12.1L14.63,4l-.12.1,0,0v0L14.61,4l.11-.14.06-.08h0l0,0L15,3.56l.16-.11.07-.08A2.1,2.1,0,0,0,15.45,3l.13,0a2.2,2.2,0,0,0,.21-.32l.15-.31Z"/><path d="M11.68,6.36a1.27,1.27,0,0,0-.13.19l0,0-.2.15.12-.15Z"/><path d="M12,6l-.08.12-.07.11-.18.13h0a1.2,1.2,0,0,1,.17-.21A1.29,1.29,0,0,1,12,6Z"/><path d="M12.35,5.62l0,.06-.1.17h0l0,0L12,6a.18.18,0,0,1,.05-.07,1.68,1.68,0,0,1,.18-.21h0Z"/><path d="M12.68,5.25h0l-.11.18v0a1,1,0,0,0-.2.14l.09-.13a1.45,1.45,0,0,1,.21-.22Z"/><path d="M12.92,5l-.05.09-.19.13a1.27,1.27,0,0,1,.13-.19Z"/><path d="M14.21,4.33l-.09.09,0,0-.16.14-.11.1-.12.11-.05,0-.09.09-.19.17-.07.07h0l-.2.18L13,5.4a1.07,1.07,0,0,1-.16.14l-.06,0a.12.12,0,0,1-.05,0,1.51,1.51,0,0,1-.23.21l0,0,0,0a1.71,1.71,0,0,1-.2.18h0L12,6.34l0,0h0l-.29.27-.1.1-.08,0,0,0h0l-.12.08L11.15,7l0,0L11,7.14,11,7.08c.07-.08.14-.17.22-.25l.1-.08,0,.06L11.15,7l.19-.12a1.3,1.3,0,0,0,.1-.15l.19-.1.08-.13,0,0,.1-.17.19-.1.05-.08,0-.08.19-.09.19-.11.09-.15.12-.06.07,0,.09-.14.19-.11.17-.12,0,0,.09-.11.09-.15,0,0a.41.41,0,0,1,0-.09l.19-.11.19-.11.17-.11,0,0Z"/><path d="M16.07,1.36a.8.8,0,0,0-.1.23,2,2,0,0,0-.08.26l-.1,0-.13.06c0-.09.07-.16.1-.23A1,1,0,0,1,16.07,1.36Z"/><path d="M16.11,2.36a1.5,1.5,0,0,1-.19.32,3.92,3.92,0,0,1-.27.33l-.23.23-.1.09,0,0-.13.12L15,3.57a1.85,1.85,0,0,1-.14.14h0l-.12.1.1-.11,0,0L15,3.56l.16-.11.07-.08A2.1,2.1,0,0,0,15.45,3l.13,0a2.2,2.2,0,0,0,.21-.32l.15-.31Z"/><path d="M11.68,6.36a1.27,1.27,0,0,0-.13.19l0,0-.2.15.12-.15Z"/><path d="M12,6l-.08.12-.07.11-.18.13h0a1.2,1.2,0,0,1,.17-.21A1.29,1.29,0,0,1,12,6Z"/><path d="M12.35,5.62l0,.06-.1.17h0l0,0L12,6a.18.18,0,0,1,.05-.07,1.68,1.68,0,0,1,.18-.21h0Z"/><path d="M12.68,5.25h0l-.11.18v0a1,1,0,0,0-.2.14l.09-.13a1.45,1.45,0,0,1,.21-.22Z"/><path d="M13,4.89a.64.64,0,0,0-.08.14l-.05.09-.19.13a1.27,1.27,0,0,1,.13-.19A1.54,1.54,0,0,1,13,4.89Z"/><path d="M13.08,4.82,13,4.89l0,0Z"/><path d="M14.49,4.08l-.13.12-.15.13-.09.09,0,0-.16.14-.11.1-.12.11-.05,0-.09.09-.19.17-.07.07h0l-.2.18L13,5.4a1.07,1.07,0,0,1-.16.14l-.06,0a.12.12,0,0,1-.05,0,1.51,1.51,0,0,1-.23.21l0,0,0,0a1.71,1.71,0,0,1-.2.18h0L12,6.34l0,0h0l-.29.27-.1.1-.08,0,0,0h0l-.12.08L11.15,7l0,0L11,7.14,11,7.08c.07-.08.14-.17.22-.25l.1-.08,0,.06L11.15,7l.19-.12a1.3,1.3,0,0,0,.1-.15l.19-.1.08-.13,0,0,.1-.17.19-.1.05-.08,0-.08.19-.09.19-.11.09-.15.12-.06.07,0,.09-.14.19-.11.17-.12,0,0,.09-.11.09-.15,0,0a.41.41,0,0,1,0-.09l.19-.11.09-.14.05,0L14,4.42l.18-.11.17-.11Z"/><path d="M16.11,2.36a1.5,1.5,0,0,1-.19.32,3.92,3.92,0,0,1-.27.33l-.23.23-.1.09,0,0-.13.12L15,3.57a1.36,1.36,0,0,0,.12-.12l.07-.08A2.1,2.1,0,0,0,15.45,3l.13,0a2.2,2.2,0,0,0,.21-.32l.15-.31Z"/><path d="M16.57.89c0,.08-.05.17-.08.26l-.08,0-.14.06a.67.67,0,0,0-.2.12.84.84,0,0,1,.3-.35A.67.67,0,0,1,16.57.89Z"/><path d="M11.68,6.36a1.27,1.27,0,0,0-.13.19l0,0-.2.15.12-.15Z"/><path d="M12,6l-.08.12-.07.11-.18.13h0a1.2,1.2,0,0,1,.17-.21A1.29,1.29,0,0,1,12,6Z"/><path d="M12.35,5.62l0,.06-.1.17h0l0,0L12,6a.18.18,0,0,1,.05-.07,1.68,1.68,0,0,1,.18-.21h0Z"/><path d="M12.68,5.25h0l-.11.18v0a1,1,0,0,0-.2.14l.09-.13a1.45,1.45,0,0,1,.21-.22Z"/><path d="M13,4.89a.64.64,0,0,0-.08.14l-.05.09-.19.13a1.27,1.27,0,0,1,.13-.19A1.54,1.54,0,0,1,13,4.89Z"/><path d="M13.27,4.61l-.08.15v0l-.09,0h0L13,4.89l0,0a1,1,0,0,1,.16-.2Z"/><path d="M14.77,3.82,14.63,4l-.12.1,0,0-.13.12-.15.13-.09.09,0,0-.16.14-.11.1-.12.11-.05,0-.09.09-.19.17-.07.07h0l-.2.18L13,5.4a1.07,1.07,0,0,1-.16.14l-.06,0a.12.12,0,0,1-.05,0,1.51,1.51,0,0,1-.23.21l0,0,0,0a1.71,1.71,0,0,1-.2.18h0L12,6.34l0,0h0l-.29.27-.1.1-.08,0,0,0h0l-.12.08L11.15,7l0,0L11,7.14,11,7.08c.07-.08.14-.17.22-.25l.1-.08,0,.06L11.15,7l.19-.12a1.3,1.3,0,0,0,.1-.15l.19-.1.08-.13,0,0,.1-.17.19-.1.05-.08,0-.08.19-.09.19-.11.09-.15.12-.06.07,0,.09-.14.19-.11.17-.12,0,0,.09-.11.09-.15,0,0a.41.41,0,0,1,0-.09l.19-.11.09-.14h0l.05,0L14,4.42l.09-.14.19-.11.14-.08,0,0L14.61,4Z"/><path d="M16.11,2.36a1.5,1.5,0,0,1-.19.32,3.92,3.92,0,0,1-.27.33l-.23.23-.1.09A3.56,3.56,0,0,0,15.58,3a2.2,2.2,0,0,0,.21-.32l.15-.31Z"/><path d="M16.67.66a1.6,1.6,0,0,0-.1.23c0,.08-.05.17-.08.26l-.08,0-.14.06a1.22,1.22,0,0,1,.1-.23A.91.91,0,0,1,16.67.66Z"/><path d="M11.68,6.36a1.27,1.27,0,0,0-.13.19l0,0-.2.15.12-.15Z"/><path d="M12,6l-.08.12-.07.11-.18.13h0a1.2,1.2,0,0,1,.17-.21A1.29,1.29,0,0,1,12,6Z"/><path d="M12.35,5.62l0,.06-.1.17h0l0,0L12,6a.18.18,0,0,1,.05-.07,1.68,1.68,0,0,1,.18-.21h0Z"/><path d="M12.68,5.25h0l-.11.18v0a1,1,0,0,0-.2.14l.09-.13a1.45,1.45,0,0,1,.21-.22Z"/><path d="M13,4.89a.64.64,0,0,0-.08.14l-.05.09-.19.13a1.27,1.27,0,0,1,.13-.19A1.54,1.54,0,0,1,13,4.89Z"/><path d="M13.31,4.53s0,0,0,.08l-.08.15v0l-.09,0h0L13,4.89l0,0a1,1,0,0,1,.16-.2Z"/><path d="M13.64,4.34h0l-.12.06a1.37,1.37,0,0,0-.2.13l.07-.11.14,0Z"/><path d="M15,3.57a1.85,1.85,0,0,1-.14.14h0l-.12.1L14.63,4l-.12.1,0,0-.13.12-.15.13-.09.09,0,0-.16.14-.11.1-.12.11-.05,0-.09.09-.19.17-.07.07h0l-.2.18L13,5.4a1.07,1.07,0,0,1-.16.14l-.06,0a.12.12,0,0,1-.05,0,1.51,1.51,0,0,1-.23.21l0,0,0,0a1.71,1.71,0,0,1-.2.18h0L12,6.34l0,0h0l-.29.27-.1.1-.08,0,0,0h0l-.12.08L11.15,7l0,0L11,7.14,11,7.08c.07-.08.14-.17.22-.25l.1-.08,0,.06L11.15,7l.19-.12a1.3,1.3,0,0,0,.1-.15l.19-.1.08-.13,0,0,.1-.17.19-.1.05-.08,0-.08.19-.09.19-.11.09-.15.12-.06.07,0,.09-.14.19-.11.17-.12,0,0,.09-.11.09-.15,0,0a.41.41,0,0,1,0-.09l.19-.11.09-.14h0l.05,0L14,4.42l.09-.14.19-.11a.21.21,0,0,1,0-.06l0-.08.2-.11.18-.11.14-.09,0,0A.79.79,0,0,0,15,3.57Z"/><path d="M26.61,24.51c-2,1.31-4.6-.41-10.29.36-5.92.8-7.9,3.3-10,2.47s.06-3.68-2.63-7.92C1.88,16.53-.3,16.09,0,14.36c.42-2.16,4-2.48,4.49-4.95.37-1.92-1.65-2.65-.92-3.69,1.14-1.65,6.48-.44,10-1.51a1.94,1.94,0,0,0-.2.21l-.07.11-.12.11a1,1,0,0,0-.16.2l0,0a1.54,1.54,0,0,0-.19.17,1.27,1.27,0,0,0-.13.19l0,0a1.45,1.45,0,0,0-.21.22l-.09.13-.1.09h0a1.68,1.68,0,0,0-.18.21A.18.18,0,0,0,12,6a1.29,1.29,0,0,0-.17.16,1.2,1.2,0,0,0-.17.21h0l-.24.24-.12.15-.1.08c-.08.08-.15.17-.22.25L11,7.14a1.75,1.75,0,0,0-.24.23,1.64,1.64,0,0,0-.2.26,1.76,1.76,0,0,0-.14.23,1.51,1.51,0,0,0-.11.22,2,2,0,0,0-.1.21,6.39,6.39,0,0,1-1.84,2.49C7,12,5.91,12.23,5.93,13s1.37,1,2.39,2.3c1.26,1.56.13,2.43,1,3.72,1.24,1.73,5.25,2.89,7.57,2a4.22,4.22,0,0,0,2.64-4.67c-.42-2-1.51-2.43-1.41-4.36s1.88-5,1.2-5.83c-.94-1.15-5.66-.45-7.79.61l.1-.1L12,6.38h0l0,0,.23-.22h0a1.71,1.71,0,0,0,.2-.18l0,0,0,0a1.51,1.51,0,0,0,.23-.21.12.12,0,0,0,.05,0l.06,0A1.07,1.07,0,0,0,13,5.4l.06-.06.2-.18h0l.07-.07.19-.17.09-.09.05,0,.12-.11.11-.1.16-.14,0,0,.09-.09.15-.13.13-.12,0,0,.12-.1.14-.14.12-.1h0A1.85,1.85,0,0,0,15,3.57l.11-.09.13-.12,0,0,.1-.09L15.65,3a3.92,3.92,0,0,0,.27-.33,1.5,1.5,0,0,0,.19-.32A2.22,2.22,0,0,0,16.25,2c0-.1.07-.21.1-.31s0-.2.08-.3l.06-.28c0-.09.05-.18.08-.26a1.6,1.6,0,0,1,.1-.23,1.08,1.08,0,0,1,.66-.54c2-.67,6.41,1.53,8.56,4.51,2.29,3.16.15,4.65.72,11.68C27,21.49,28.42,23.32,26.61,24.51Z"/><path d="M11.68,6.36a1.27,1.27,0,0,0-.13.19l0,0-.2.15.12-.15Z"/><path d="M12,6l-.08.12-.07.11-.18.13h0a1.2,1.2,0,0,1,.17-.21A1.29,1.29,0,0,1,12,6Z"/><path d="M12.35,5.62l0,.06-.1.17h0l0,0L12,6a.18.18,0,0,1,.05-.07,1.68,1.68,0,0,1,.18-.21h0Z"/><path d="M12.68,5.25h0l-.11.18v0a1,1,0,0,0-.2.14l.09-.13a1.45,1.45,0,0,1,.21-.22Z"/><path d="M13,4.89a.64.64,0,0,0-.08.14l-.05.09-.19.13a1.27,1.27,0,0,1,.13-.19A1.54,1.54,0,0,1,13,4.89Z"/><path d="M13.31,4.53s0,0,0,.08l-.08.15v0l-.09,0h0L13,4.89l0,0a1,1,0,0,1,.16-.2Z"/><path d="M13.52,4.38l.12,0h0l-.12.06a1.37,1.37,0,0,0-.2.13l.07-.11a1.94,1.94,0,0,1,.2-.21h0Z"/><path d="M13.72,4.31h0l-.08,0Z"/><polygon points="13.94 4.22 13.93 4.23 13.93 4.23 13.94 4.22"/><path d="M15.32,3.33l0,0-.13.12L15,3.57a1.85,1.85,0,0,1-.14.14h0l-.12.1L14.63,4l-.12.1,0,0-.13.12-.15.13-.09.09,0,0-.16.14-.11.1-.12.11-.05,0-.09.09-.19.17-.07.07h0l-.2.18L13,5.4a1.07,1.07,0,0,1-.16.14l-.06,0a.12.12,0,0,1-.05,0,1.51,1.51,0,0,1-.23.21l0,0,0,0a1.71,1.71,0,0,1-.2.18h0L12,6.34l0,0h0l-.29.27-.1.1-.08,0,0,0h0l-.12.08L11.15,7l0,0L11,7.14,11,7.08c.07-.08.14-.17.22-.25l.1-.08,0,.06L11.15,7l.19-.12a1.3,1.3,0,0,0,.1-.15l.19-.1.08-.13,0,0,.1-.17.19-.1.05-.08,0-.08.19-.09.19-.11.09-.15.12-.06.07,0,.09-.14.19-.11.17-.12,0,0,.09-.11.09-.15,0,0a.41.41,0,0,1,0-.09l.19-.11.09-.14h0l.05,0L14,4.42l.09-.14.19-.11a.21.21,0,0,1,0-.06l0-.08.2-.11a.64.64,0,0,0,.08-.14l.06,0,.13-.07L15,3.56l.16-.11.12-.09Z"/></g></g></svg>